GIL02_xslow2_ik
nRows=3
nColumns=375

# SIMM Motion File Header:
name GIL02_xslow2_ik
datacolumns 375
datarows 3
otherdata 1
range 0.80833000 0.82500000
endheader
time	pelvis_tx	pelvis_ty	pelvis_tz	pelvis_tilt	pelvis_list	pelvis_rotation	hip_flexion_r	hip_adduction_r	hip_rotation_r	knee_angle_r	ankle_angle_r	hip_flexion_l	hip_adduction_l	hip_rotation_l	knee_angle_l	ankle_angle_l	lumbar_extension	lumbar_bending	lumbar_rotation	subtalar_angle_r	mtp_angle_r	subtalar_angle_l	mtp_angle_l	asis_r_px	asis_r_py	asis_r_pz	asis_l_px	asis_l_py	asis_l_pz	midasis_px	midasis_py	midasis_pz	psis_r_px	psis_r_py	psis_r_pz	psis_l_px	psis_l_py	psis_l_pz	hip_r_px	hip_r_py	hip_r_pz	hip_l_px	hip_l_py	hip_l_pz	midhip_px	midhip_py	midhip_pz	epicondLat_r_px	epicondLat_r_py	epicondLat_r_pz	epicondMed_r_px	epicondMed_r_py	epicondMed_r_pz	thighwand_r_px	thighwand_r_py	thighwand_r_pz	upperleg1_r_px	upperleg1_r_py	upperleg1_r_pz	upperleg2_r_px	upperleg2_r_py	upperleg2_r_pz	malleolusLat_r_px	malleolusLat_r_py	malleolusLat_r_pz	malleolusMedv_r_px	malleolusMedv_r_py	malleolusMedv_r_pz	shankwand_r_px	shankwand_r_py	shankwand_r_pz	lowerleg1_r_px	lowerleg1_r_py	lowerleg1_r_pz	knee_r_px	knee_r_py	knee_r_pz	ankle_r_px	ankle_r_py	ankle_r_pz	toe_r_px	toe_r_py	toe_r_pz	epicondLat_l_px	epicondLat_l_py	epicondLat_l_pz	epicondMed_l_px	epicondMed_l_py	epicondMed_l_pz	thighwand_l_px	thighwand_l_py	thighwand_l_pz	upperleg1_l_px	upperleg1_l_py	upperleg1_l_pz	upperleg2_l_px	upperleg2_l_py	upperleg2_l_pz	malleolusLat_l_px	malleolusLat_l_py	malleolusLat_l_pz	malleolusMedv_l_px	malleolusMedv_l_py	malleolusMedv_l_pz	shankwand_l_px	shankwand_l_py	shankwand_l_pz	lowerleg1_l_px	lowerleg1_l_py	lowerleg1_l_pz	knee_l_px	knee_l_py	knee_l_pz	ankle_l_px	ankle_l_py	ankle_l_pz	toe_l_px	toe_l_py	toe_l_pz	subclavicle_r_px	subclavicle_r_py	subclavicle_r_pz	subclavicle_l_px	subclavicle_l_py	subclavicle_l_pz	neck_px	neck_py	neck_pz	sternalnotch_px	sternalnotch_py	sternalnotch_pz	xyphoidprocess_px	xyphoidprocess_py	xyphoidprocess_pz	midhip_tx	midhip_ty	midhip_tz	hip_r_tx	hip_r_ty	hip_r_tz	hip_l_tx	hip_l_ty	hip_l_tz	knee_r_tx	knee_r_ty	knee_r_tz	knee_l_tx	knee_l_ty	knee_l_tz	ankle_r_tx	ankle_r_ty	ankle_r_tz	ankle_l_tx	ankle_l_ty	ankle_l_tz	midasis_tx	midasis_ty	midasis_tz	asis_r_tx	asis_r_ty	asis_r_tz	asis_l_tx	asis_l_ty	asis_l_tz	psis_r_tx	psis_r_ty	psis_r_tz	psis_l_tx	psis_l_ty	psis_l_tz	epicondLat_r_tx	epicondLat_r_ty	epicondLat_r_tz	epicondLat_l_tx	epicondLat_l_ty	epicondLat_l_tz	epicondMed_r_tx	epicondMed_r_ty	epicondMed_r_tz	epicondMed_l_tx	epicondMed_l_ty	epicondMed_l_tz	malleolusLat_r_tx	malleolusLat_r_ty	malleolusLat_r_tz	malleolusLat_l_tx	malleolusLat_l_ty	malleolusLat_l_tz	malleolusMedv_r_tx	malleolusMedv_r_ty	malleolusMedv_r_tz	malleolusMedv_l_tx	malleolusMedv_l_ty	malleolusMedv_l_tz	neck_tx	neck_ty	neck_tz	subclavicle_r_tx	subclavicle_r_ty	subclavicle_r_tz	subclavicle_l_tx	subclavicle_l_ty	subclavicle_l_tz	sternalnotch_tx	sternalnotch_ty	sternalnotch_tz	xyphoidprocess_tx	xyphoidprocess_ty	xyphoidprocess_tz	thighwand_r_tx	thighwand_r_ty	thighwand_r_tz	thighwand_l_tx	thighwand_l_ty	thighwand_l_tz	upperleg1_r_tx	upperleg1_r_ty	upperleg1_r_tz	upperleg1_l_tx	upperleg1_l_ty	upperleg1_l_tz	upperleg2_r_tx	upperleg2_r_ty	upperleg2_r_tz	upperleg2_l_tx	upperleg2_l_ty	upperleg2_l_tz	shankwand_r_tx	shankwand_r_ty	shankwand_r_tz	shankwand_l_tx	shankwand_l_ty	shankwand_l_tz	lowerleg1_r_tx	lowerleg1_r_ty	lowerleg1_r_tz	lowerleg1_l_tx	lowerleg1_l_ty	lowerleg1_l_tz	toe_r_tx	toe_r_ty	toe_r_tz	toe_l_tx	toe_l_ty	toe_l_tz	ground_force_vx	ground_force_vy	ground_force_vz	ground_force_px	ground_force_py	ground_force_pz	ground_force_vx	ground_force_vy	ground_force_vz	ground_force_px	ground_force_py	ground_force_pz	ground_torque_x	ground_torque_y	ground_torque_z	ground_torque_x	ground_torque_y	ground_torque_z	ground_marker_px	ground_marker_py	ground_marker_pz	ground_marker_px	ground_marker_py	ground_marker_pz	ground_marker_px	ground_marker_py	ground_marker_pz	ground_marker_px	ground_marker_py	ground_marker_pz	ground_marker_px	ground_marker_py	ground_marker_pz	ground_marker_px	ground_marker_py	ground_marker_pz	ground_marker_px	ground_marker_py	ground_marker_pz	ground_marker_px	ground_marker_py	ground_marker_pz	ground_marker_px	ground_marker_py	ground_marker_pz	ground_marker_px	ground_marker_py	ground_marker_pz	ground_marker_px	ground_marker_py	ground_marker_pz	ground_marker_px	ground_marker_py	ground_marker_pz	ground_marker_px	ground_marker_py	ground_marker_pz	ground_marker_px	ground_marker_py	ground_marker_pz	ground_marker_px	ground_marker_py	ground_marker_pz	ground_marker_px	ground_marker_py	ground_marker_pz	ground_marker_px	ground_marker_py	ground_marker_pz	ground_marker_px	ground_marker_py	ground_marker_pz	ground_marker_px	ground_marker_py	ground_marker_pz	ground_marker_px	ground_marker_py	ground_marker_pz	ground_marker_px	ground_marker_py	ground_marker_pz	ground_marker_px	ground_marker_py	ground_marker_pz	ground_marker_px	ground_marker_py	ground_marker_pz	ground_marker_px	ground_marker_py	ground_marker_pz	ground_marker_px	ground_marker_py	ground_marker_pz	ground_marker_px	ground_marker_py	ground_marker_pz	ground_marker_px	ground_marker_py	ground_marker_pz	ground_marker_px	ground_marker_py	ground_marker_pz	ground_marker_px	ground_marker_py	ground_marker_pz	ground_marker_px	ground_marker_py	ground_marker_pz	ground_marker_px	ground_marker_py	ground_marker_pz	ground_marker_px	ground_marker_py	ground_marker_pz	ground_marker_px	ground_marker_py	ground_marker_pz	ground_marker_px	ground_marker_py	ground_marker_pz	ground_marker_px	ground_marker_py	ground_marker_pz	ground_marker_px	ground_marker_py	ground_marker_pz	ground_marker_px	ground_marker_py	ground_marker_pz
      0.80833000	      1.63402234	      0.93421136	     -0.31160471	     -2.97651366	      2.64830488	      1.46489403	     28.28906306	     -5.52533156	      7.04734302	    -18.05927922	     -5.08091196	     -4.71806921	      7.86003640	      9.96359481	     -3.25424525	     10.71193475	     -0.82127642	     -1.23736602	     -0.77799959	      0.00000000	      0.00000000	      0.00000000	      0.00000000	      1.68302963	      0.92649976	     -0.19562790	      1.68010326	      0.94413440	     -0.43311580	      1.64702584	      0.93355062	     -0.31193732	      1.49913308	      0.99484115	     -0.27527794	      1.50261068	      0.99749647	     -0.36114213	      1.56696173	      0.87251580	     -0.23519268	      1.56336793	      0.87988864	     -0.39034010	      1.56516483	      0.87620222	     -0.31276639	      1.77710297	      0.50362172	     -0.14443779	      1.73779218	      0.48635339	     -0.24797430	      1.78173874	      0.63495217	     -0.08784436	      1.75787263	      0.69124807	     -0.16183719	      1.78756406	      0.60783236	     -0.17625156	      1.78632916	      0.08545509	     -0.13922300	      1.79918668	      0.09749859	     -0.20889335	      1.80184077	      0.22598752	     -0.06245345	      1.78586039	      0.18770027	     -0.13190562	      1.74554532	      0.49209511	     -0.21666527	      1.79641497	      0.09896507	     -0.18499548	      1.91933111	      0.06426786	     -0.16662223	      1.52749352	      0.43858289	     -0.41672236	      1.50528293	      0.45726226	     -0.30993023	      1.68185503	      0.52812683	     -0.34369993	      1.63024579	      0.59077237	     -0.39846932	      1.59904974	      0.50976159	     -0.39336315	      1.40886476	      0.06344549	     -0.35979256	      1.42984325	      0.07843311	     -0.29788098	      1.47145149	      0.18357642	     -0.45269099	      1.44103927	      0.15798304	     -0.38171608	      1.50481171	      0.46649625	     -0.35196594	      1.43124911	      0.07714431	     -0.31826811	      1.54721872	      0.03804534	     -0.34953052	      1.60328131	      1.33919539	     -0.24188730	      1.61523813	      1.34517850	     -0.34938952	      1.47700345	      1.41181301	     -0.29696230	      1.59172934	      1.34946365	     -0.29426890	      1.67962593	      1.18895346	     -0.30523728	      1.56553600	      0.88631200	     -0.30808300	      1.56088800	      0.86179300	     -0.23965200	      1.55944400	      0.86854800	     -0.38992200	      1.74253200	      0.48527400	     -0.21249400	      1.50628600	      0.45910700	     -0.35449600	      1.79479400	      0.08395600	     -0.20097500	      1.43049900	      0.07156900	     -0.30726000	      1.65067900	      0.94772600	     -0.31194500	      1.65182400	      0.94236700	     -0.19273800	      1.64953400	      0.95308500	     -0.43115300	      1.46547000	      0.99395500	     -0.26961200	      1.47003100	      0.99813200	     -0.35466000	      1.74690000	      0.49156400	     -0.15449800	      1.51474800	      0.45307100	     -0.41155700	      1.72673100	      0.46389000	     -0.25740700	      1.47821700	      0.45423900	     -0.30620100	      1.77894800	      0.08294600	     -0.16426200	      1.41645000	      0.06988700	     -0.34360200	      1.80169600	      0.09927200	     -0.22900400	      1.43601500	      0.08847400	     -0.28202500	      1.48185300	      1.42002800	     -0.29622400	      1.60167800	      1.33153600	     -0.24504900	      1.60893200	      1.33268500	     -0.34961900	      1.58906900	      1.34182100	     -0.29554500	      1.65419100	      1.17061100	     -0.30457000	      1.74427300	      0.59853300	     -0.08203600	      1.66079700	      0.51670000	     -0.35194100	      1.72934000	      0.66002300	     -0.15082100	      1.60610000	      0.57973300	     -0.40281500	      1.76301100	      0.57864100	     -0.16863900	      1.56898600	      0.50039200	     -0.39599900	      1.77227400	      0.22132700	     -0.08078900	      1.47382700	      0.18765900	     -0.44135700	      1.77005400	      0.18361700	     -0.15304600	      1.44496300	      0.16468300	     -0.36998700	      1.91269000	      0.06279600	     -0.18455500	      1.55052500	      0.03949400	     -0.32310800	      0.00000000	      0.00000000	      0.00000000	      2.18289136	      0.00000000	     -0.18876443	     13.73518749	    646.28144214	     18.62065793	      1.53387524	      0.00000000	     -0.32847055	      0.00000000	      0.00000000	      0.00000000	      0.00000000	     -1.28017798	      0.00000000	      1.56553614	      0.88631165	     -0.30808303	      1.56088758	      0.86179292	     -0.23965164	      1.55944395	      0.86854827	     -0.38992229	      1.74253166	      0.48527357	     -0.21249403	      1.50628614	      0.45910671	     -0.35449618	      1.79479373	      0.08395626	     -0.20097542	      1.43049896	      0.07156906	     -0.30725959	      1.65067911	      0.94772637	     -0.31194526	      1.65182436	      0.94236743	     -0.19273767	      1.64953387	      0.95308530	     -0.43115285	      1.46547043	      0.99395537	     -0.26961184	      1.47003114	      0.99813193	     -0.35465959	      1.74690032	      0.49156430	     -0.15449756	      1.51474810	      0.45307103	     -0.41155726	      1.72673118	      0.46388957	     -0.25740722	      1.47821689	      0.45423871	     -0.30620110	      1.77894771	      0.08294644	     -0.16426186	      1.41645014	      0.06988663	     -0.34360245	      1.80169559	      0.09927189	     -0.22900444	      1.43601465	      0.08847378	     -0.28202450	      1.48185301	      1.42002833	     -0.29622379	      1.60167801	      1.33153594	     -0.24504900	      1.60893238	      1.33268523	     -0.34961852	      1.58906937	      1.34182072	     -0.29554474	      1.65419126	      1.17061126	     -0.30457011	      1.74427271	      0.59853262	     -0.08203606	      1.66079736	      0.51670021	     -0.35194132	      1.72934031	      0.66002315	     -0.15082099	      1.60610020	      0.57973278	     -0.40281549	      1.76301110	      0.57864094	     -0.16863945	      1.56898570	      0.50039220	     -0.39599866	      1.77227378	      0.22132690	     -0.08078939	      1.47382653	      0.18765880	     -0.44135725	      1.77005363	      0.18361673	     -0.15304628	      1.44496322	      0.16468301	     -0.36998728	      1.91268981	      0.06279570	     -0.18455504	      1.55052519	      0.03949418	     -0.32310820
      0.81667000	      1.63775409	      0.93360225	     -0.31164628	     -3.04953203	      2.64724631	      1.55252648	     28.26651297	     -5.61723317	      6.77230942	    -16.50253982	     -6.26432661	     -4.86147701	      7.85843840	      9.92254816	     -3.34433568	     10.90763145	     -0.75677550	     -1.29527520	     -0.36657680	      0.00000000	      0.00000000	      0.00000000	      0.00000000	      1.68692906	      0.92582439	     -0.19574490	      1.68366136	      0.94347745	     -0.43322698	      1.65075626	      0.93292589	     -0.31199878	      1.50299353	      0.99439208	     -0.27510992	      1.50634323	      0.99704861	     -0.36097916	      1.57073599	      0.87198266	     -0.23513571	      1.56691422	      0.87936956	     -0.39027702	      1.56882511	      0.87567611	     -0.31270637	      1.78005045	      0.50273913	     -0.14389259	      1.74107596	      0.48559252	     -0.24757637	      1.78467098	      0.63402624	     -0.08719744	      1.76114005	      0.69040319	     -0.16123590	      1.79076608	      0.60695584	     -0.17560160	      1.79942170	      0.08560611	     -0.13998580	      1.81203333	      0.09819315	     -0.20960499	      1.81126364	      0.22624706	     -0.06276258	      1.79633296	      0.18778241	     -0.13235018	      1.74833182	      0.49131248	     -0.21620190	      1.80920236	      0.09951320	     -0.18570553	      1.93230879	      0.06537790	     -0.16755506	      1.52931410	      0.43820560	     -0.41662757	      1.50742499	      0.45695490	     -0.30978132	      1.68418326	      0.52715752	     -0.34395727	      1.63268211	      0.59000423	     -0.39859781	      1.60119289	      0.50911099	     -0.39342802	      1.40879373	      0.06365552	     -0.35955972	      1.42998626	      0.07851070	     -0.29768913	      1.47181655	      0.18348273	     -0.45255553	      1.44142302	      0.15802787	     -0.38152282	      1.50690055	      0.46618752	     -0.35181237	      1.43134090	      0.07722123	     -0.31807969	      1.54713488	      0.03789909	     -0.34971102	      1.60763316	      1.33872911	     -0.24244693	      1.61865333	      1.34466544	     -0.35005179	      1.48087210	      1.41130737	     -0.29645344	      1.59562457	      1.34897256	     -0.29473060	      1.68344166	      1.18846768	     -0.30639168	      1.56892600	      0.88558700	     -0.30805700	      1.56452700	      0.86133700	     -0.23949600	      1.56289500	      0.86813000	     -0.38976300	      1.74548400	      0.48450300	     -0.21199200	      1.50825400	      0.45890000	     -0.35430000	      1.80792800	      0.08449000	     -0.20163800	      1.43052100	      0.07169600	     -0.30726100	      1.65433600	      0.94717000	     -0.31188700	      1.65563100	      0.94178000	     -0.19265900	      1.65304200	      0.95256000	     -0.43111500	      1.46929100	      0.99358100	     -0.26923800	      1.47373900	      0.99784500	     -0.35427700	      1.74963900	      0.49073300	     -0.15397300	      1.51657100	      0.45284300	     -0.41138000	      1.72834600	      0.46272100	     -0.25674800	      1.48097600	      0.45292500	     -0.30668600	      1.79235300	      0.08301200	     -0.16482500	      1.41639600	      0.07012000	     -0.34357900	      1.81477400	      0.09974500	     -0.22981500	      1.43612500	      0.08885400	     -0.28202800	      1.48567900	      1.41951900	     -0.29607200	      1.60574900	      1.33076500	     -0.24464000	      1.61286400	      1.33274200	     -0.34995000	      1.59291400	      1.34137400	     -0.29541300	      1.65845600	      1.17039900	     -0.30585700	      1.74671700	      0.59773300	     -0.08176600	      1.66300200	      0.51605800	     -0.35207900	      1.73158300	      0.65920300	     -0.15073200	      1.60836400	      0.57939400	     -0.40276800	      1.76511800	      0.57763800	     -0.16845700	      1.57156000	      0.49977800	     -0.39626100	      1.78273300	      0.22108200	     -0.08107100	      1.47424300	      0.18783900	     -0.44138500	      1.78135000	      0.18382500	     -0.15344600	      1.44575600	      0.16476200	     -0.36974900	      1.92669500	      0.06382000	     -0.18616600	      1.55039100	      0.03944400	     -0.32322800	      0.00000000	      0.00000000	      0.00000000	      2.18156189	      0.00000000	     -0.18877267	     15.83672909	    644.99771852	     19.15963077	      1.53475903	      0.00000000	     -0.32877405	      0.00000000	      0.00000000	      0.00000000	      0.00000000	     -1.29157397	      0.00000000	      1.56892610	      0.88558728	     -0.30805659	      1.56452656	      0.86133707	     -0.23949641	      1.56289530	      0.86813033	     -0.38976341	      1.74548388	      0.48450285	     -0.21199214	      1.50825405	      0.45889977	     -0.35429966	      1.80792844	      0.08449014	     -0.20163824	      1.43052113	      0.07169601	     -0.30726087	      1.65433621	      0.94716990	     -0.31188700	      1.65563059	      0.94177979	     -0.19265927	      1.65304184	      0.95255995	     -0.43111470	      1.46929145	      0.99358070	     -0.26923767	      1.47373915	      0.99784493	     -0.35427713	      1.74963903	      0.49073276	     -0.15397340	      1.51657081	      0.45284274	     -0.41137981	      1.72834647	      0.46272123	     -0.25674820	      1.48097563	      0.45292524	     -0.30668610	      1.79235303	      0.08301158	     -0.16482492	      1.41639590	      0.07011969	     -0.34357879	      1.81477356	      0.09974469	     -0.22981542	      1.43612468	      0.08885357	     -0.28202841	      1.48567855	      1.41951859	     -0.29607207	      1.60574913	      1.33076525	     -0.24464045	      1.61286390	      1.33274233	     -0.34995031	      1.59291375	      1.34137368	     -0.29541296	      1.65845644	      1.17039931	     -0.30585673	      1.74671674	      0.59773338	     -0.08176637	      1.66300213	      0.51605767	     -0.35207874	      1.73158276	      0.65920329	     -0.15073243	      1.60836399	      0.57939422	     -0.40276754	      1.76511836	      0.57763761	     -0.16845669	      1.57156003	      0.49977818	     -0.39626136	      1.78273344	      0.22108218	     -0.08107112	      1.47424269	      0.18783928	     -0.44138488	      1.78134966	      0.18382466	     -0.15344593	      1.44575584	      0.16476221	     -0.36974940	      1.92669511	      0.06382017	     -0.18616562	      1.55039096	      0.03944356	     -0.32322812
      0.82500000	      1.64153813	      0.93301788	     -0.31162260	     -3.10430392	      2.65023662	      1.63040850	     28.19226570	     -5.69581135	      6.57445437	    -14.95988320	     -7.53345697	     -5.02227803	      7.85874348	      9.86178421	     -3.45032225	     11.08845478	     -0.68270265	     -1.31366984	     -0.27102933	      0.00000000	      0.00000000	      0.00000000	      0.00000000	      1.69086291	      0.92518154	     -0.19578884	      1.68728967	      0.94286734	     -0.43326408	      1.65453921	      0.93232994	     -0.31199278	      1.50688149	      0.99392344	     -0.27489636	      1.51011738	      0.99658776	     -0.36076972	      1.57456861	      0.87144855	     -0.23502909	      1.57054353	      0.87885835	     -0.39016416	      1.57255607	      0.87515345	     -0.31259662	      1.78292412	      0.50175209	     -0.14342591	      1.74415255	      0.48471754	     -0.24720420	      1.78768106	      0.63301153	     -0.08667801	      1.76443418	      0.68945963	     -0.16075197	      1.79392373	      0.60595691	     -0.17507670	      1.81205711	      0.08588742	     -0.14066488	      1.82434112	      0.09896984	     -0.21025131	      1.82043970	      0.22656867	     -0.06306297	      1.80644951	      0.18793540	     -0.13275252	      1.75095734	      0.49041396	     -0.21577701	      1.82148297	      0.10015507	     -0.18634803	      1.94472112	      0.06630095	     -0.16856863	      1.53120303	      0.43784541	     -0.41650178	      1.50965596	      0.45665663	     -0.30959691	      1.68659220	      0.52619482	     -0.34420754	      1.63519165	      0.58924721	     -0.39870565	      1.60340889	      0.50847301	     -0.39347120	      1.40868813	      0.06391823	     -0.35930954	      1.43010776	      0.07862737	     -0.29748228	      1.47216651	      0.18342973	     -0.45240171	      1.44179590	      0.15811528	     -0.38130904	      1.50907272	      0.46588940	     -0.35162204	      1.43140767	      0.07733913	     -0.31787648	      1.54700003	      0.03773437	     -0.34989031	      1.61154046	      1.33825368	     -0.24248619	      1.62223771	      1.34418911	     -0.35012369	      1.48458692	      1.41077256	     -0.29611904	      1.59937177	      1.34848896	     -0.29473444	      1.68722527	      1.18802258	     -0.30664836	      1.57247100	      0.88487700	     -0.30778600	      1.56823900	      0.86085600	     -0.23932700	      1.56644300	      0.86767700	     -0.38959100	      1.74826900	      0.48365600	     -0.21148700	      1.51031000	      0.45866500	     -0.35404400	      1.82049500	      0.08519200	     -0.20235600	      1.43052900	      0.07182000	     -0.30726800	      1.65805200	      0.94661100	     -0.31180500	      1.65947700	      0.94119800	     -0.19255400	      1.65662700	      0.95202400	     -0.43105500	      1.47314700	      0.99314900	     -0.26880200	      1.47748600	      0.99749700	     -0.35387600	      1.75228200	      0.48985400	     -0.15345500	      1.51847100	      0.45258300	     -0.41114400	      1.72954100	      0.46155100	     -0.25611300	      1.48290400	      0.45301200	     -0.30708900	      1.80521800	      0.08326900	     -0.16543800	      1.41634100	      0.07035700	     -0.34356600	      1.82674600	      0.10035300	     -0.23081300	      1.43582200	      0.08906100	     -0.28194100	      1.48923800	      1.41910200	     -0.29583700	      1.60920800	      1.33018400	     -0.24454600	      1.61695800	      1.33257100	     -0.34997200	      1.59680200	      1.34091700	     -0.29524900	      1.66240800	      1.17009400	     -0.30614200	      1.74923000	      0.59689800	     -0.08157000	      1.66530600	      0.51539100	     -0.35219200	      1.73341700	      0.65842400	     -0.15051700	      1.61079900	      0.57918300	     -0.40319600	      1.76698800	      0.57651900	     -0.16838700	      1.57362500	      0.49937200	     -0.39661900	      1.79282100	      0.22097700	     -0.08137000	      1.47471400	      0.18799100	     -0.44137900	      1.79242800	      0.18355500	     -0.15430500	      1.44611000	      0.16474000	     -0.36947600	      1.94015600	      0.06473500	     -0.18780200	      1.55020800	      0.03933900	     -0.32331000	      0.00000000	      0.00000000	      0.00000000	      2.17987988	      0.00000000	     -0.18876530	     17.91454678	    643.01395302	     19.72747229	      1.53569861	      0.00000000	     -0.32902951	      0.00000000	      0.00000000	      0.00000000	      0.00000000	     -1.29138965	      0.00000000	      1.57247114	      0.88487732	     -0.30778617	      1.56823862	      0.86085594	     -0.23932669	      1.56644320	      0.86767685	     -0.38959056	      1.74826908	      0.48365605	     -0.21148689	      1.51031017	      0.45866516	     -0.35404435	      1.82049525	      0.08519225	     -0.20235582	      1.43052912	      0.07181979	     -0.30726770	      1.65805197	      0.94661117	     -0.31180456	      1.65947664	      0.94119805	     -0.19255377	      1.65662718	      0.95202434	     -0.43105534	      1.47314656	      0.99314851	     -0.26880181	      1.47748590	      0.99749696	     -0.35387561	      1.75228167	      0.48985425	     -0.15345474	      1.51847053	      0.45258281	     -0.41114438	      1.72954142	      0.46155140	     -0.25611284	      1.48290372	      0.45301217	     -0.30708897	      1.80521762	      0.08326899	     -0.16543840	      1.41634107	      0.07035677	     -0.34356585	      1.82674634	      0.10035279	     -0.23081252	      1.43582237	      0.08906081	     -0.28194052	      1.48923838	      1.41910160	     -0.29583731	      1.60920823	      1.33018434	     -0.24454598	      1.61695814	      1.33257103	     -0.34997219	      1.59680176	      1.34091675	     -0.29524860	      1.66240788	      1.17009401	     -0.30614159	      1.74922991	      0.59689826	     -0.08157004	      1.66530573	      0.51539093	     -0.35219225	      1.73341680	      0.65842414	     -0.15051696	      1.61079884	      0.57918268	     -0.40319604	      1.76698840	      0.57651854	     -0.16838686	      1.57362461	      0.49937209	     -0.39661929	      1.79282069	      0.22097678	     -0.08136982	      1.47471440	      0.18799107	     -0.44137865	      1.79242754	      0.18355487	     -0.15430520	      1.44610953	      0.16474026	     -0.36947611	      1.94015646	      0.06473513	     -0.18780151	      1.55020845	      0.03933861	     -0.32331011
